<svg width="55" height="59" viewBox="0 0 55 59" fill="none" xmlns="http://www.w3.org/2000/svg">
<path fill-rule="evenodd" clip-rule="evenodd" d="M31.4357 38.8724C34.6659 38.8724 37.2952 41.4829 37.2952 44.6917V52.9444C37.2952 53.6339 37.8479 54.1866 38.5561 54.2027H43.6698C47.6996 54.2027 50.9754 50.967 50.9754 46.9909V23.5851C50.9566 22.2168 50.3047 20.929 49.1859 20.0731L31.4974 5.96631C29.123 4.08558 25.8015 4.08558 23.4191 5.97168L5.85126 20.0678C4.68956 20.9505 4.03761 22.2383 4.02419 23.6307V46.9909C4.02419 50.967 7.30004 54.2027 11.3298 54.2027H16.4918C17.2188 54.2027 17.8091 53.6258 17.8091 52.9175C17.8091 52.7619 17.8279 52.6063 17.86 52.4588V44.6917C17.86 41.5017 20.4732 38.8939 23.6793 38.8724H31.4357ZM43.6698 58.227H38.5079C35.5513 58.1573 33.2708 55.8366 33.2708 52.9444V44.6917C33.2708 43.7017 32.4471 42.8968 31.4357 42.8968H23.6927C22.7027 42.9022 21.8844 43.7097 21.8844 44.6917V52.9175C21.8844 53.1188 21.8576 53.3119 21.8013 53.4944C21.5115 56.1505 19.2418 58.227 16.4918 58.227H11.3298C5.08126 58.227 -0.000198364 53.1858 -0.000198364 46.9909V23.6119C0.0266309 20.9451 1.25541 18.5036 3.37761 16.8966L20.9105 2.8246C24.7713 -0.233934 30.1505 -0.233934 34.0032 2.81924L51.6622 16.9046C53.7361 18.4848 54.9649 20.9209 54.9998 23.5556V46.9909C54.9998 53.1858 49.9183 58.227 43.6698 58.227Z" fill="#118AC5"/>
</svg>
