<svg width="55" height="56" viewBox="0 0 55 56" fill="none" xmlns="http://www.w3.org/2000/svg">
<path fill-rule="evenodd" clip-rule="evenodd" d="M24.8355 33.8629L35.1505 50.5977C35.6018 51.331 36.307 51.3226 36.5919 51.2831C36.8767 51.2436 37.5622 51.0687 37.8104 50.2366L50.7091 6.67203C50.9348 5.90199 50.5201 5.37736 50.334 5.1912C50.1535 5.00503 49.6373 4.60733 48.8898 4.81887L5.29417 17.585C4.46772 17.8276 4.2872 18.5215 4.24771 18.8064C4.20822 19.0969 4.19694 19.8162 4.92748 20.2759L21.8541 30.8617L36.8091 15.7488C37.6299 14.9195 38.9697 14.9111 39.8017 15.7319C40.6338 16.5527 40.6395 17.8953 39.8187 18.7246L24.8355 33.8629ZM36.3719 55.531C34.4087 55.531 32.6091 54.5325 31.5486 52.8175L20.613 35.0729L2.68508 23.8609C0.752953 22.6509 -0.256832 20.4959 0.0562573 18.231C0.366527 15.966 1.92069 14.1664 4.10386 13.5262L47.6995 0.759988C49.705 0.173297 51.8543 0.728961 53.3323 2.20133C54.8103 3.6878 55.3603 5.85969 54.7624 7.87361L41.8636 51.4354C41.2177 53.627 39.4125 55.1756 37.1532 55.4774C36.888 55.5112 36.6314 55.531 36.3719 55.531Z" fill="#80C0EE"/>
</svg>
