<svg width="55" height="53" viewBox="0 0 55 53" fill="none" xmlns="http://www.w3.org/2000/svg">
<path fill-rule="evenodd" clip-rule="evenodd" d="M27.5003 4.23085C27.2436 4.23085 26.6118 4.30136 26.2761 4.97265L21.1258 15.2705C20.3106 16.898 18.7396 18.029 16.9231 18.2885L5.39268 19.9499C4.63113 20.0599 4.37164 20.624 4.29266 20.8609C4.22215 21.0894 4.10933 21.6704 4.63395 22.1725L12.9715 30.1829C14.3 31.4606 14.9036 33.3024 14.5877 35.1047L12.6246 46.4152C12.5033 47.1232 12.9462 47.535 13.1436 47.676C13.3523 47.834 13.9108 48.147 14.6018 47.786L24.911 42.441C26.5356 41.6033 28.4705 41.6033 30.0895 42.441L40.3959 47.7832C41.0897 48.1414 41.6482 47.8283 41.8598 47.676C42.0572 47.535 42.5 47.1232 42.3787 46.4152L40.41 35.1047C40.0941 33.3024 40.6977 31.4606 42.0262 30.1829L50.3638 22.1725C50.8912 21.6704 50.7784 21.0865 50.705 20.8609C50.6289 20.624 50.3694 20.0599 49.6078 19.9499L38.0774 18.2885C36.2638 18.029 34.6927 16.898 33.8776 15.2677L28.7216 4.97265C28.3887 4.30136 27.7569 4.23085 27.5003 4.23085ZM13.9531 52.1804C12.7882 52.1804 11.6318 51.8138 10.6418 51.0917C8.93249 49.8394 8.09478 47.7719 8.45864 45.6903L10.4217 34.3799C10.4951 33.9596 10.3512 33.5337 10.041 33.2347L1.70338 25.2243C0.168997 23.7548 -0.381013 21.583 0.267717 19.5663C0.922088 17.527 2.65391 16.0688 4.78908 15.7641L16.3195 14.1028C16.7652 14.0408 17.1488 13.7672 17.3406 13.3779L22.4938 3.07724C23.4443 1.179 25.3623 0 27.5003 0C29.6383 0 31.5562 1.179 32.5068 3.07724L37.6628 13.3751C37.8574 13.7672 38.2381 14.0408 38.681 14.1028L50.2114 15.7641C52.3466 16.0688 54.0784 17.527 54.7328 19.5663C55.3815 21.583 54.8287 23.7548 53.2943 25.2243L44.9567 33.2347C44.6465 33.5337 44.5054 33.9596 44.5788 34.377L46.5447 45.6903C46.9057 47.7747 46.068 49.8422 44.356 51.0917C42.6213 52.3638 40.362 52.5358 38.4469 51.5373L28.1434 46.198C27.74 45.9893 27.2577 45.9893 26.8544 46.198L16.5508 51.5402C15.7272 51.9689 14.8388 52.1804 13.9531 52.1804Z" fill="#80C0EE"/>
</svg>
